<svg style="position: absolute; width: 0; height: 0;" width="0" height="0" version="1.1" xmlns="http://www.w3.org/2000/svg" xmlns:xlink="http://www.w3.org/1999/xlink">
    <defs>
    <symbol id="search" viewBox="0 0 15.594 15.594">
      <title>search-symbol</title>
      <path
        class="path1"
        d="M15.596,14.111 L14.111,15.596 L9.344,10.828 C7.024,12.448 3.807,12.222 1.736,10.151 C-0.587,7.828 -0.587,4.060 1.736,1.737 C4.060,-0.587 7.827,-0.587 10.151,1.737 C12.221,3.807 12.447,7.023 10.829,9.343 L15.596,14.111 ZM8.914,2.974 C7.273,1.334 4.614,1.334 2.974,2.974 C1.334,4.614 1.334,7.274 2.974,8.914 C4.614,10.554 7.273,10.554 8.914,8.914 C10.554,7.274 10.554,4.614 8.914,2.974 Z">
      </path>
    </symbol>

    <symbol id="icon-circle-right" viewBox="0 0 32 32">
      <title>circle-right</title>
      <path class="path1" d="M16 0c-8.837 0-16 7.163-16 16s7.163 16 16 16 16-7.163 16-16-7.163-16-16-16zM16 29c-7.18 0-13-5.82-13-13s5.82-13 13-13 13 5.82 13 13-5.82 13-13 13z"></path>
      <path class="path2" d="M11.086 22.086l2.829 2.829 8.914-8.914-8.914-8.914-2.828 2.828 6.086 6.086z"></path>
    </symbol>

    <symbol id="icon-menu" viewBox="0 0 32 32">
      <title>menu</title>
      <path class="path1" d="M2 6h28v6h-28zM2 14h28v6h-28zM2 22h28v6h-28z"></path>
    </symbol>

    <symbol id="fyi" viewBox="0 0 80 80">
  	  <title>fyi</title>
  		<path
        class="st0"
        d="M78.7,74.4L59.8,55.5l13.3-13.3c1.2-1.2,1.2-3.1,0-4.3l-0.1-0.1L66.2,31c-1.2-1.2-3.1-1.2-4.3,0l-0.1,0.2
  	l-1.7,1.7L37.4,15.4l2.8-2.9c1.2-1.2,1.2-3.1,0-4.3l0,0l-6.9-6.9c-1.2-1.2-3.1-1.2-4.3,0L1.3,29c-1.2,1.2-1.2,3.1,0,4.3l0.2,0.1
  	l6.8,6.8c1.2,1.2,3.1,1.2,4.3,0l0,0l0,0l2.8-2.8l17.5,22.7L31,61.9c-1.2,1.2-1.2,3.1,0,4.3l0.1,0.1l6.8,6.8c1.2,1.2,3.1,1.2,4.3,0v0
  	v0l13.3-13.3l18.9,18.9c1.2,1.2,3.1,1.2,4.3,0C79.9,77.5,79.9,75.6,78.7,74.4L78.7,74.4z M13.6,30.6L13.6,30.6l-0.1,0.1l-3.1,3.1
  	l-2.6-2.6L31.1,7.8l2.6,2.6l-1.2,1.2l-1.9,1.9L13.6,30.6L13.6,30.6z M18.2,31.1L18.2,31.1l12.9-12.9l26.5,20.5l-19,19L18.2,31.1
  	L18.2,31.1z M40.1,66.7L40.1,66.7L37.5,64l1.5-1.6v0l0,0l23.3-23.3l0.1,0l0.8-0.8l0,0l0.7-0.7l2.7,2.6L40.1,66.7L40.1,66.7z">
      </path>
		</symbol>

		<symbol id="block" viewBox="0 0 80 80">
			<title>roadblock</title>
			<path
        class="st0"
        d="M79.1,70.1L60.8,38.5L42.6,6.9c-0.3-0.4-0.6-0.8-1.1-1.1c-1.4-0.8-3.3-0.4-4.1,1.1L19.1,38.5L0.9,69.9
	c-0.3,0.5-0.5,1.1-0.5,1.7c0,1.7,1.4,3.1,3,3.1h73v0c0.5,0,1.1-0.1,1.5-0.4C79.4,73.4,79.9,71.5,79.1,70.1L79.1,70.1z M8.7,68.5
	L8.7,68.5l15.6-27l15.6-27.1l15.6,27.1l15.6,27H8.7L8.7,68.5z M44.1,54.9L44.1,54.9c-1-1.1-2.5-1.7-4.1-1.7c-1.6,0-3.1,0.7-4.1,1.7
	l0,0c-1.1,1-1.7,2.5-1.7,4.1c0,1.6,0.7,3.1,1.7,4.1c1,1,2.5,1.7,4.1,1.7c1.6,0,3.1-0.7,4.1-1.7c1.1-1,1.7-2.5,1.7-4.1
	c0-1.5-0.6-3-1.6-4L44.1,54.9L44.1,54.9z M41.5,60.6L41.5,60.6c-0.4,0.4-0.9,0.6-1.5,0.6c-0.6,0-1.1-0.2-1.5-0.6
	c-0.4-0.4-0.7-1-0.7-1.5c0-0.6,0.3-1.2,0.7-1.5v0v0c0.4-0.4,0.9-0.6,1.5-0.6c0.6,0,1.2,0.3,1.5,0.6l0.1,0.1c0.3,0.4,0.6,0.9,0.6,1.5
	C42.1,59.6,41.9,60.2,41.5,60.6L41.5,60.6z M39.9,28L39.9,28c-1.6,0-3.1,0.7-4.1,1.7c-1,1.1-1.7,2.5-1.7,4.1v11.1
	c0,1.6,0.7,3.1,1.7,4.1c1,1,2.5,1.7,4.1,1.7c1.6,0,3.1-0.7,4.1-1.7c1.1-1.1,1.7-2.5,1.7-4.1V33.8c0-1.6-0.6-3.1-1.7-4.1
	C43,28.6,41.6,28,39.9,28L39.9,28z M42.1,44.9L42.1,44.9c0,0.6-0.2,1.1-0.6,1.5c-0.4,0.4-0.9,0.6-1.5,0.6c-0.6,0-1.1-0.2-1.5-0.6
	c-0.4-0.4-0.7-1-0.7-1.5V33.8c0-0.6,0.3-1.2,0.7-1.5c0.4-0.4,0.9-0.7,1.5-0.7c0.6,0,1.1,0.3,1.5,0.7c0.4,0.4,0.6,0.9,0.6,1.5V44.9
	L42.1,44.9z">
      </path>
		</symbol>

		<symbol id="bonus" viewBox="0 0 80 80">
			<title>bonus</title>
			<path class="st0" d="M6.6,24.4L6.6,24.4h66.8c1.6,0,3,1.3,3,3v0.1v13.4c0,1.6-1.3,3-3,3h-0.1h-0.3v32.7c0,1.6-1.3,3-3,3H70H9.9
	c-1.6,0-3-1.3-3-3v-0.1V43.9H6.6c-1.6,0-3-1.3-3-3v-0.1V27.4C3.6,25.8,5,24.4,6.6,24.4L6.6,24.4z M45.8,73.6L45.8,73.6V43.9H34.2
	v29.7H45.8L45.8,73.6z M30.6,73.6L30.6,73.6V43.9H12.9v29.7H30.6L30.6,73.6z M49.3,43.9L49.3,43.9v29.7h17.7V43.9H49.3L49.3,43.9z
	 M40.1,6.6L40.1,6.6c1.4,0,2.8,0.4,4,1.1c0.5-1.6,1.4-3,2.6-4.2c1.9-1.9,4.6-3.1,7.5-3.1c2.9,0,5.6,1.2,7.5,3.1
	c1.9,1.9,3.1,4.6,3.1,7.5c0,2.9-1.2,5.6-3.1,7.5c-1.9,1.9-4.6,3.1-7.5,3.1v0c-9.5,0-18.9,0-28.4,0v0c-2.9,0-5.6-1.2-7.5-3.1
	c-1.9-1.9-3.1-4.6-3.1-7.5c0-2.9,1.2-5.6,3.1-7.5c1.9-1.9,4.6-3.1,7.5-3.1s5.6,1.2,7.5,3.1c1.2,1.2,2.1,2.7,2.6,4.3
	C37.1,7,38.6,6.6,40.1,6.6L40.1,6.6z M43,11.3L43,11.3c-0.7-0.7-1.7-1.2-2.8-1.2c-1.1,0-2.1,0.5-2.8,1.2c-0.7,0.7-1.2,1.7-1.2,2.8
	c0,1.1,0.5,2.1,1.2,2.8c0.7,0.7,1.7,1.2,2.8,1.2c1.1,0,2-0.4,2.7-1.1l0.1-0.1c0.7-0.7,1.2-1.7,1.2-2.8C44.1,13,43.7,12,43,11.3
	L43,11.3z M47.1,11.2L47.1,11.2c0.4,0.9,0.6,1.9,0.6,2.9c0,1.5-0.4,2.8-1.1,4h7.6l0,0c2,0,3.7-0.8,5-2.1c1.3-1.3,2.1-3,2.1-5
	s-0.8-3.7-2.1-5c-1.3-1.3-3-2.1-5-2.1c-1.9,0-3.7,0.8-5,2.1c-1.3,1.3-2.1,3-2.1,5L47.1,11.2L47.1,11.2z M33.7,18.1L33.7,18.1
	c-0.7-1.1-1.1-2.5-1.1-4c0-0.8,0.1-1.7,0.4-2.4c-0.1-0.2-0.1-0.4-0.1-0.7c0-1.9-0.8-3.7-2.1-5c-1.3-1.3-3-2.1-5-2.1
	c-1.9,0-3.7,0.8-5,2.1c-1.3,1.3-2.1,3-2.1,5s0.8,3.7,2.1,5c1.3,1.3,3,2.1,5,2.1l0,0H33.7L33.7,18.1z M70.4,30.4L70.4,30.4H9.6V38
	c21.9,0,39,0,60.8,0V30.4L70.4,30.4z"></path>
		</symbol>

    <symbol id="plus" viewBox="0 0 42 42">
      <title>plus</title>
      <path d="M 42,20 22,20 22,0 20,0 20,20 0,20 0,22 20,22 20,42 22,42 22,22 42,22 z"/>
    </symbol>

    <symbol id="minus" viewBox="0 0 100 100" >
      <title>minus</title>
      <rect fill="#010101" height="2.5" width="60" x="21.5" y="51.6"/>
    </symbol>
  </defs>
</svg>
